<svg xmlns="http://www.w3.org/2000/svg" width="107" height="35"><g fill="none" fill-rule="evenodd"><path fill="#000" d="M106.599 30.117a4.71 4.71 0 0 1-4.711 4.706H4.712A4.71 4.71 0 0 1 0 30.117V4.706A4.71 4.71 0 0 1 4.712 0h97.176a4.709 4.709 0 0 1 4.71 4.706v25.41z"/><path d="M24.61 17.828c-.027-3.057 2.507-4.544 2.623-4.613-1.436-2.09-3.66-2.376-4.442-2.398-1.868-.197-3.68 1.116-4.632 1.116-.97 0-2.437-1.097-4.016-1.065-2.033.031-3.934 1.206-4.977 3.031-2.153 3.722-.547 9.19 1.515 12.198 1.031 1.473 2.237 3.118 3.814 3.06 1.544-.063 2.12-.983 3.983-.983 1.846 0 2.387.983 3.996.946 1.656-.026 2.7-1.48 3.695-2.966 1.192-1.688 1.67-3.351 1.69-3.437-.04-.013-3.218-1.224-3.249-4.889zm-3.04-8.99c.83-1.038 1.4-2.448 1.242-3.879-1.201.053-2.704.83-3.57 1.844-.765.894-1.449 2.358-1.272 3.736 1.35.1 2.735-.68 3.602-1.701zm19.2 14.632h-1.81l-.992-3.114h-3.45l-.945 3.114H31.81l3.417-10.601h2.11L40.77 23.47zm-3.103-4.42l-.897-2.769c-.095-.282-.273-.948-.535-1.997h-.032a80.081 80.081 0 0 1-.504 1.997l-.882 2.769h2.85zm11.891.504c0 1.3-.351 2.328-1.055 3.082-.63.672-1.413 1.007-2.347 1.007-1.008 0-1.732-.362-2.173-1.085h-.032v4.027h-1.7v-8.243c0-.817-.022-1.656-.064-2.516h1.496l.095 1.211h.032c.567-.912 1.427-1.368 2.583-1.368.902 0 1.656.356 2.26 1.069.604.714.905 1.652.905 2.816zm-1.732.062c0-.744-.168-1.357-.504-1.84-.368-.504-.862-.755-1.48-.755-.42 0-.802.14-1.142.416a1.932 1.932 0 0 0-.67 1.094 2.22 2.22 0 0 0-.078.518v1.274c0 .556.17 1.026.512 1.409.341.383.785.574 1.33.574.64 0 1.14-.247 1.496-.74.357-.492.536-1.142.536-1.95zm10.536-.062c0 1.3-.351 2.328-1.056 3.082-.629.672-1.412 1.007-2.346 1.007-1.008 0-1.732-.362-2.173-1.085h-.031v4.027h-1.701v-8.243c0-.817-.022-1.656-.063-2.516h1.496l.094 1.211h.032c.567-.912 1.427-1.368 2.583-1.368.902 0 1.656.356 2.26 1.069.603.714.905 1.652.905 2.816zm-1.732.062c0-.744-.168-1.357-.505-1.84-.368-.504-.86-.755-1.48-.755-.42 0-.8.14-1.142.416a1.93 1.93 0 0 0-.668 1.094 2.26 2.26 0 0 0-.08.518v1.274c0 .556.171 1.026.511 1.409.342.382.785.574 1.332.574.64 0 1.14-.247 1.496-.74.357-.492.536-1.142.536-1.95zm11.576.881c0 .902-.314 1.636-.943 2.202-.692.619-1.654.928-2.892.928-1.142 0-2.058-.22-2.75-.66l.393-1.416c.747.45 1.566.677 2.459.677.64 0 1.139-.145 1.497-.433.357-.289.534-.676.534-1.159 0-.43-.146-.792-.44-1.086-.293-.294-.782-.567-1.465-.82-1.859-.692-2.787-1.706-2.787-3.04 0-.871.325-1.586.977-2.142.65-.557 1.515-.835 2.599-.835.966 0 1.768.169 2.409.504L67.37 14.6c-.598-.325-1.274-.487-2.031-.487-.598 0-1.066.147-1.4.44a1.258 1.258 0 0 0-.426.96c0 .42.162.766.487 1.038.283.252.798.524 1.545.818.913.368 1.584.797 2.015 1.29.43.49.645 1.104.645 1.837zm5.623-3.397h-1.875v3.712c0 .944.33 1.415.992 1.415.304 0 .556-.026.756-.079l.047 1.29c-.335.125-.776.188-1.323.188-.671 0-1.196-.205-1.575-.613-.377-.41-.567-1.096-.567-2.061v-3.853h-1.117v-1.275h1.117v-1.4l1.67-.503v1.903h1.875V17.1zm8.457 2.485c0 1.175-.336 2.14-1.008 2.894-.704.777-1.639 1.164-2.804 1.164-1.124 0-2.018-.372-2.685-1.116-.666-.744-1-1.683-1-2.815 0-1.185.343-2.155 1.031-2.91.687-.755 1.614-1.132 2.78-1.132 1.123 0 2.027.372 2.709 1.117.652.722.977 1.655.977 2.798zm-1.764.055c0-.705-.15-1.31-.456-1.814-.357-.61-.867-.914-1.527-.914-.684 0-1.203.305-1.56.914-.305.505-.456 1.12-.456 1.846 0 .705.151 1.31.457 1.813.367.61.88.914 1.544.914.65 0 1.159-.31 1.527-.93.313-.514.471-1.125.471-1.83zm7.292-2.32a2.957 2.957 0 0 0-.536-.048c-.598 0-1.06.226-1.386.678-.283.398-.425.901-.425 1.51v4.01h-1.7l.016-5.237c0-.88-.022-1.683-.064-2.406H85.2l.063 1.462h.047c.18-.502.462-.907.85-1.21.379-.274.788-.41 1.23-.41.156 0 .298.011.424.03v1.62zm7.606 1.966c0 .305-.02.561-.062.77h-5.102c.02.756.267 1.333.74 1.732.43.356.986.534 1.67.534.754 0 1.444-.12 2.063-.362l.267 1.18c-.724.315-1.58.472-2.566.472-1.187 0-2.119-.35-2.797-1.046-.676-.697-1.015-1.633-1.015-2.807 0-1.153.315-2.113.946-2.878.66-.818 1.553-1.226 2.676-1.226 1.103 0 1.938.408 2.505 1.226.45.649.675 1.452.675 2.405zm-1.621-.44c.01-.504-.1-.939-.33-1.306-.295-.472-.747-.708-1.356-.708-.556 0-1.008.23-1.354.692a2.532 2.532 0 0 0-.503 1.32H93.8v.002zM34.773 8.47c0 .525-.158.921-.473 1.187-.292.245-.707.368-1.245.368a5.78 5.78 0 0 1-.686-.035V7.117c.25-.04.518-.06.807-.06.513 0 .899.11 1.16.333.29.251.437.611.437 1.08zm-.494.012c0-.34-.09-.602-.271-.784-.181-.182-.445-.273-.793-.273-.147 0-.273.01-.377.03V9.64c.057.008.163.012.317.012.358 0 .635-.1.83-.298.195-.2.294-.49.294-.872zm3.116.447c0 .324-.093.589-.278.797-.194.214-.452.321-.773.321-.31 0-.556-.102-.74-.308-.183-.205-.275-.464-.275-.776 0-.326.094-.593.284-.801.19-.208.445-.312.766-.312.31 0 .558.102.747.307.179.2.269.457.269.772zm-.487.015a.952.952 0 0 0-.125-.5.463.463 0 0 0-.421-.252.47.47 0 0 0-.43.252.964.964 0 0 0-.126.508c0 .195.042.361.126.5a.473.473 0 0 0 .426.252c.179 0 .319-.085.42-.256a.946.946 0 0 0 .13-.504zm4.002-1.051l-.66 2.106h-.43l-.273-.914a6.838 6.838 0 0 1-.17-.68h-.008c-.041.23-.097.457-.17.68l-.29.914h-.435l-.62-2.106h.482l.238 1.001c.058.237.105.463.143.676h.009c.035-.176.092-.4.174-.671l.299-1.006h.382l.287.984c.07.24.126.471.169.694h.013c.032-.217.08-.448.143-.694l.256-.984h.46zM43.34 10h-.469V8.792c0-.372-.141-.558-.425-.558a.423.423 0 0 0-.338.153.543.543 0 0 0-.13.361V10h-.47V8.495c0-.185-.005-.386-.016-.603h.412l.022.33h.013a.677.677 0 0 1 .242-.255.793.793 0 0 1 .426-.118c.196 0 .36.063.49.19.162.156.243.39.243.698V10zm1.293 0h-.468V6.925h.468zm2.761-1.071c0 .324-.093.589-.278.797-.194.214-.452.321-.773.321-.31 0-.556-.102-.74-.308-.183-.205-.275-.464-.275-.776 0-.326.095-.593.284-.801.19-.208.445-.312.766-.312.31 0 .558.102.747.307.179.2.269.457.269.772zm-.487.015a.952.952 0 0 0-.126-.5.462.462 0 0 0-.42-.252.47.47 0 0 0-.43.252.964.964 0 0 0-.125.508c0 .195.042.361.125.5a.473.473 0 0 0 .426.252c.179 0 .319-.085.42-.256a.942.942 0 0 0 .13-.504zM49.663 10h-.42l-.036-.243h-.013c-.144.193-.35.29-.616.29a.638.638 0 0 1-.481-.19.598.598 0 0 1-.165-.43c0-.257.107-.453.323-.59.216-.135.52-.201.91-.198v-.04c0-.277-.146-.416-.438-.416a.982.982 0 0 0-.55.156l-.095-.307c.195-.121.438-.182.723-.182.551 0 .828.29.828.871v.776c0 .21.01.378.03.502zm-.487-.725v-.324c-.517-.01-.775.132-.775.424 0 .11.029.192.09.247.06.055.137.082.229.082a.47.47 0 0 0 .286-.097.399.399 0 0 0 .17-.332zm3.151.725h-.416l-.022-.339h-.013c-.132.257-.359.386-.677.386a.794.794 0 0 1-.633-.299c-.168-.2-.252-.458-.252-.776 0-.34.09-.617.273-.828a.841.841 0 0 1 .651-.294c.284 0 .482.095.595.286h.009v-1.21h.469v2.506a9 9 0 0 0 .016.567zm-.485-.89v-.35a.533.533 0 0 0-.183-.431.461.461 0 0 0-.314-.115.481.481 0 0 0-.412.208.891.891 0 0 0-.15.533c0 .208.047.377.144.507a.483.483 0 0 0 .41.208.452.452 0 0 0 .37-.173.577.577 0 0 0 .135-.386zm4.496-.181c0 .324-.093.589-.278.797-.194.214-.451.321-.773.321-.31 0-.556-.102-.74-.308-.183-.205-.275-.464-.275-.776 0-.326.094-.593.284-.801.19-.208.445-.312.766-.312.31 0 .559.102.747.307.179.2.269.457.269.772zm-.486.015a.952.952 0 0 0-.126-.5.464.464 0 0 0-.421-.252.471.471 0 0 0-.43.252.964.964 0 0 0-.126.508c0 .195.042.361.126.5a.473.473 0 0 0 .426.252c.178 0 .32-.085.42-.256a.95.95 0 0 0 .13-.504zM58.859 10h-.469V8.792c0-.372-.141-.558-.425-.558a.42.42 0 0 0-.338.153.541.541 0 0 0-.13.361V10h-.47V8.495c0-.185-.005-.386-.016-.603h.411l.022.33h.013a.684.684 0 0 1 .243-.255.795.795 0 0 1 .425-.118c.197 0 .36.063.49.19.163.156.244.39.244.698V10zm3.155-1.756h-.516v1.023c0 .26.092.39.273.39a.827.827 0 0 0 .21-.022l.011.355a1.055 1.055 0 0 1-.364.053.56.56 0 0 1-.433-.17c-.105-.112-.157-.301-.157-.567V8.244h-.308v-.351h.308v-.386l.46-.139v.524h.516v.352zM64.497 10h-.47V8.801c0-.378-.141-.567-.424-.567-.218 0-.366.11-.448.329a.588.588 0 0 0-.022.168v1.267h-.468V6.926h.468v1.27h.01a.709.709 0 0 1 .633-.346c.194 0 .355.063.482.19.159.159.239.395.239.707v1.252zm2.56-1.154c0 .084-.006.155-.017.213h-1.407c.007.208.074.366.204.476a.7.7 0 0 0 .46.148c.208 0 .398-.033.57-.1l.072.325c-.2.087-.435.13-.707.13-.327 0-.584-.096-.77-.288-.187-.192-.28-.45-.28-.773 0-.318.086-.582.26-.793a.897.897 0 0 1 .738-.338c.303 0 .534.113.69.338.125.179.187.4.187.662zm-.447-.12a.63.63 0 0 0-.091-.36.41.41 0 0 0-.373-.196.445.445 0 0 0-.373.191.708.708 0 0 0-.14.364h.977z" fill="#FFF"/></g></svg>