<svg xmlns="http://www.w3.org/2000/svg" xmlns:xlink="http://www.w3.org/1999/xlink" width="149" height="201"><defs><rect id="a" width="148.23" height="200.22" rx="12"/><filter id="c" width="138.2%" height="164.1%" x="-16.4%" y="-28.2%" filterUnits="objectBoundingBox"><feOffset dx="2" dy="2" in="SourceAlpha" result="shadowOffsetOuter1"/><feGaussianBlur in="shadowOffsetOuter1" result="shadowBlurOuter1" stdDeviation="3"/><feColorMatrix in="shadowBlurOuter1" result="shadowMatrixOuter1" values="0 0 0 0 0 0 0 0 0 0 0 0 0 0 0 0 0 0 0.1 0"/><feMerge><feMergeNode in="shadowMatrixOuter1"/><feMergeNode in="SourceGraphic"/></feMerge></filter><radialGradient id="d" cx="68.787%" cy="-44.815%" r="100.018%" fx="68.787%" fy="-44.815%" gradientTransform="matrix(-.16568 .49338 -.26635 -2.4652 .682 -1.892)"><stop offset="0%" stop-color="#ABC6CA"/><stop offset="100%" stop-color="#F3F9F9"/></radialGradient><linearGradient id="e" x1="86.553%" x2="18.582%" y1="100%" y2="0%"><stop offset="0%" stop-color="#ABC6CA"/><stop offset="100%" stop-color="#D9F3F7"/></linearGradient><linearGradient id="f" x1="95.686%" x2="0%" y1="98.234%" y2="12.04%"><stop offset="0%" stop-color="#5B8736"/><stop offset="100%" stop-color="#B3DB52"/></linearGradient><linearGradient id="g" x1="77.929%" x2="13.969%" y1="12.22%" y2="100%"><stop offset="0%" stop-color="#88A54F"/><stop offset="100%" stop-color="#273B09"/></linearGradient><linearGradient id="j" x1="-36.214%" x2="72.044%" y1="81.609%" y2="81.609%"><stop offset="0%" stop-color="#86A957"/><stop offset="100%" stop-color="#BEDA97"/></linearGradient><path id="i" d="M30.92 20.874c.194-4.305 2.174-7.667 4.967-9.636 2.792-1.968 6.205-2.1 8.7-2.968 2.494-.87 3.752-1.738 3.752-1.738s-.499 2.538-.806 3.51c-.49 1.543-2.197 5.207-4.897 8.078-1.14 1.212-4.94 4.408-11.716 2.754z"/><filter id="h" width="186.1%" height="201.3%" x="-43.1%" y="-70.9%" filterUnits="objectBoundingBox"><feOffset dy="-3" in="SourceAlpha" result="shadowOffsetOuter1"/><feGaussianBlur in="shadowOffsetOuter1" result="shadowBlurOuter1" stdDeviation="2"/><feColorMatrix in="shadowBlurOuter1" values="0 0 0 0 0 0 0 0 0 0 0 0 0 0 0 0 0 0 0.307687953 0"/></filter><linearGradient id="m" x1="15.4%" x2="89.596%" y1="100%" y2="13.311%"><stop offset="0%" stop-color="#86A957"/><stop offset="100%" stop-color="#496127"/></linearGradient><path id="l" d="M18.726 17.39c.195-4.305 2.174-7.667 4.967-9.636 2.792-1.968 6.206-2.1 8.7-2.968 2.495-.87 3.752-1.738 3.752-1.738s-.498 2.538-.806 3.51c-.489 1.543-2.197 5.207-4.897 8.078-1.14 1.212-4.939 4.408-11.716 2.754z"/><filter id="k" width="186.1%" height="201.3%" x="-43.1%" y="-70.9%" filterUnits="objectBoundingBox"><feOffset dy="-3" in="SourceAlpha" result="shadowOffsetOuter1"/><feGaussianBlur in="shadowOffsetOuter1" result="shadowBlurOuter1" stdDeviation="2"/><feColorMatrix in="shadowBlurOuter1" values="0 0 0 0 0 0 0 0 0 0 0 0 0 0 0 0 0 0 0.307687953 0"/></filter><linearGradient id="n" x1="24.98%" y1="83.959%" y2="26.424%"><stop offset="0%" stop-color="#950820"/><stop offset="60.92%" stop-color="#C92730"/><stop offset="100%" stop-color="#EB3B3B"/></linearGradient><radialGradient id="o" r="48.194%" fx="50%" fy="50%" gradientTransform="scale(1 .95697) rotate(-32.742 .538 .511)"><stop offset="0%" stop-color="#EB3B3B"/><stop offset="66.745%" stop-color="#F37E7E"/><stop offset="100%" stop-color="#F79F9F"/></radialGradient><linearGradient id="r" x1="95.686%" x2="4.091%" y1="98.234%" y2="-44.896%"><stop offset="0%" stop-color="#2E4818"/><stop offset="95.725%" stop-color="#233004"/></linearGradient><path id="q" d="M21.774 24.895c4.495-1.98 8.937-1.712 12.369.07 3.433 1.78 5.303 5.109 7.463 7.15 2.158 2.041 3.685 2.853 3.685 2.853s-2.845.787-3.994.971c-1.826.295-6.438.448-10.743-.786-1.82-.52-7.017-2.683-8.78-10.258z"/><filter id="p" width="163.8%" height="218.8%" x="-31.9%" y="-83.1%" filterUnits="objectBoundingBox"><feOffset dy="-3" in="SourceAlpha" result="shadowOffsetOuter1"/><feGaussianBlur in="shadowOffsetOuter1" result="shadowBlurOuter1" stdDeviation="2"/><feColorMatrix in="shadowBlurOuter1" values="0 0 0 0 0 0 0 0 0 0 0 0 0 0 0 0 0 0 0.307687953 0"/></filter><linearGradient id="t" x1="50%" x2="50%" y1="0%" y2="97.355%"><stop offset="0%" stop-color="#EF0808"/><stop offset="100%" stop-color="#720D0D"/></linearGradient><path id="s" d="M33.532 8.492a1.96 1.96 0 1 1-3.92-.001 1.96 1.96 0 0 1 3.92.001z"/><path id="u" d="M12.194 29.83a1.96 1.96 0 1 1-3.921 0 1.96 1.96 0 0 1 3.92 0z"/><path id="v" d="M29.613 35.492a1.96 1.96 0 1 1-3.92-.001 1.96 1.96 0 0 1 3.92.001z"/><path id="x" d="M42.872 28.326c1.993-.736 3.59-.181 4.493-1.008 1.7-1.559-.279-3.045-.186-5.235.087-2.068 2.572-4.553 1.165-6.233-1.406-1.68-4.088.568-6.06.386-2.086-.192-3.233-2.441-4.933-.883-.903.827-.588 2.557-1.548 4.528-.766 1.571-2.238 1.022-3.08 2.58-.86 1.59.644 1.606-.038 3.244-.251.603-.631 1.162-1.012 1.627a9.285 9.285 0 0 0-2.01 4.658c-.063.486-.075.86.014.966.09.107.445.144.913.14a8.406 8.406 0 0 0 4.678-1.468c.492-.333 1.072-.655 1.675-.836 1.641-.492 1.46 1.07 3.078.388 1.588-.667 1.26-2.268 2.85-2.854z"/><filter id="w" width="178.3%" height="182%" x="-39.1%" y="-57.4%" filterUnits="objectBoundingBox"><feOffset dy="-3" in="SourceAlpha" result="shadowOffsetOuter1"/><feGaussianBlur in="shadowOffsetOuter1" result="shadowBlurOuter1" stdDeviation="2"/><feColorMatrix in="shadowBlurOuter1" values="0 0 0 0 0 0 0 0 0 0 0 0 0 0 0 0 0 0 0.307687953 0"/></filter><linearGradient id="A" x1="100%" x2="-31.453%" y1="88.612%" y2="11.04%"><stop offset="0%" stop-color="#9FC43C"/><stop offset="100%" stop-color="#BEDA97"/></linearGradient><path id="z" d="M15.21 8.238c-.312-1.784.34-3.061-.191-3.934-1.005-1.643-2.447-.164-4.167-.53C9.228 3.427 7.596 1 6.077 1.968c-1.519.968-.1 3.532-.509 5.176-.434 1.74-2.367 2.415-1.364 4.057.534.872 1.944.834 3.374 1.905 1.141.854.508 2.028 1.627 2.945 1.142.936 1.357-.334 2.56.457.444.293.835.689 1.151 1.071a7.276 7.276 0 0 0 3.416 2.312c.374.118.669.177.765.116.097-.062.174-.357.235-.754a7.593 7.593 0 0 0-.533-4.151c-.198-.459-.373-.991-.436-1.526-.167-1.452 1.044-1.094.723-2.552-.315-1.43-1.624-1.365-1.875-2.787z"/><filter id="y" width="211.1%" height="182%" x="-55.6%" y="-57.4%" filterUnits="objectBoundingBox"><feOffset dy="-3" in="SourceAlpha" result="shadowOffsetOuter1"/><feGaussianBlur in="shadowOffsetOuter1" result="shadowBlurOuter1" stdDeviation="2"/><feColorMatrix in="shadowBlurOuter1" values="0 0 0 0 0 0 0 0 0 0 0 0 0 0 0 0 0 0 0.307687953 0"/></filter><linearGradient id="D" x1="50%" x2="50%" y1="0%" y2="95.134%"><stop offset="0%" stop-color="#E8BD00"/><stop offset="100%" stop-color="#EFFF3E"/></linearGradient><path id="C" d="M35.71 30.266a1.96 1.96 0 1 1-3.92-.001 1.96 1.96 0 0 1 3.92.001z"/><filter id="B" width="482.7%" height="482.7%" x="-191.4%" y="-267.9%" filterUnits="objectBoundingBox"><feOffset dy="-3" in="SourceAlpha" result="shadowOffsetOuter1"/><feGaussianBlur in="shadowOffsetOuter1" result="shadowBlurOuter1" stdDeviation="2"/><feColorMatrix in="shadowBlurOuter1" values="0 0 0 0 0 0 0 0 0 0 0 0 0 0 0 0 0 0 0.307687953 0"/></filter><linearGradient id="E" x1="77.539%" x2="19.188%" y1="15.982%" y2="87.109%"><stop offset="3.328%" stop-color="#FEF770"/><stop offset="97.911%" stop-color="#D8CF88"/></linearGradient><linearGradient id="F" x1="50%" x2="50%" y1="0%" y2="97.915%"><stop offset="0%" stop-color="#FFE300"/><stop offset="100%" stop-color="#9C8A00"/></linearGradient><linearGradient id="G" x1="50%" x2="50%" y1="0%" y2="100%"><stop offset="0%" stop-color="#F3F9F9"/><stop offset="100%" stop-color="#D9F3F7"/></linearGradient><linearGradient id="H" x1="0%" x2="118.074%" y1="29.059%" y2="76.455%"><stop offset="0%" stop-color="#0C5F83"/><stop offset="68.409%" stop-color="#237AA0"/><stop offset="100%" stop-color="#5ABCE6"/></linearGradient><linearGradient id="J" x1="50%" x2="50%" y1="198.356%" y2="0%"><stop offset="0%" stop-color="#483A1D"/><stop offset="42.002%" stop-color="#665A40"/><stop offset="100%" stop-color="#F2ECE0"/></linearGradient><path id="I" d="M98.976 9.308c0 5.141-22.157 9.309-49.488 9.309S0 14.449 0 9.308C0 4.168 22.157 0 49.488 0s49.488 4.168 49.488 9.308"/><linearGradient id="L" x1="0%" x2="121.57%" y1="9.99%" y2="50%"><stop offset="0%" stop-color="#EFB548"/><stop offset="100%" stop-color="#FBEACB"/></linearGradient><linearGradient id="M" x1="34.55%" x2="38.035%" y1="26.241%" y2="7.542%"><stop offset="0%" stop-color="#C7A63D"/><stop offset="100%" stop-color="#E3B869"/></linearGradient><linearGradient id="N" x1="7.903%" x2="104.06%" y1="122.233%" y2="0%"><stop offset="0%" stop-color="#EFB548"/><stop offset="100%" stop-color="#FBEACB"/></linearGradient><radialGradient id="O" r="48.194%" fx="50%" fy="50%" gradientTransform="matrix(.8387 -.5161 .50535 .85653 -.172 .33)"><stop offset="0%" stop-color="#EB3B3B"/><stop offset="66.745%" stop-color="#F37E7E"/><stop offset="100%" stop-color="#F79F9F"/></radialGradient><linearGradient id="P" x1="94.731%" x2="89.381%" y1="100%" y2="0%"><stop offset="0%" stop-color="#EFB548"/><stop offset="100%" stop-color="#FBEACB"/></linearGradient><linearGradient id="Q" x1="13.823%" x2="65.698%" y1="20.84%" y2="84.64%"><stop offset="0%" stop-color="#DC3236"/><stop offset="100%" stop-color="#950820"/></linearGradient><linearGradient id="R" x1="45.451%" x2="-2.625%" y1="50%" y2="90.111%"><stop offset="0%" stop-color="#DC3236"/><stop offset="100%" stop-color="#B11929"/></linearGradient><radialGradient id="S" cx="45.92%" fx="45.92%" fy="50%" gradientTransform="matrix(0 1 -.88078 0 .9 .04)"><stop offset="0%" stop-color="#EC4343"/><stop offset="100%" stop-color="#F69494"/></radialGradient><radialGradient id="T" r="48.194%" fx="50%" fy="50%" gradientTransform="scale(1 .97727) rotate(-32.197 .52 .506)"><stop offset="0%" stop-color="#EB3B3B"/><stop offset="66.745%" stop-color="#F37E7E"/><stop offset="100%" stop-color="#F79F9F"/></radialGradient><linearGradient id="U" x1="83.893%" x2="1.949%" y1="82.509%" y2="14.448%"><stop offset="0%" stop-color="#F2ECE0"/><stop offset="38.534%" stop-color="#F9F6F0"/><stop offset="100%" stop-color="#FAF7F2"/></linearGradient><linearGradient id="V" x1="33.758%" x2="50%" y1="76.195%" y2="100%"><stop offset="0%" stop-color="#C8A63D"/><stop offset="100%" stop-color="#EFB74E"/></linearGradient><linearGradient id="W" x1="26.511%" x2="136.719%" y1="17.389%" y2="234.877%"><stop offset="0%" stop-color="#F4CCA4"/><stop offset="11.116%" stop-color="#EDC193"/><stop offset="100%" stop-color="#B7670B"/></linearGradient><radialGradient id="X" cy="24.461%" r="109.077%" fx="50%" fy="24.461%" gradientTransform="matrix(0 -1 .59673 0 .354 .745)"><stop offset="0%" stop-color="#C88335"/><stop offset="100%" stop-color="#ECBE8F"/></radialGradient><linearGradient id="Y" x1="5.132%" x2="109.626%" y1="76.557%" y2="50%"><stop offset="0%" stop-color="#442109"/><stop offset="100%" stop-color="#793011"/></linearGradient><linearGradient id="ab" x1="129.282%" x2="15.378%" y1="161.51%" y2="50%"><stop offset="0%" stop-color="#442109"/><stop offset="100%" stop-color="#793011"/></linearGradient><path id="aa" d="M1.811 32.604c0 2.554 10.137 4.625 22.642 4.625 12.505 0 22.642-2.07 22.642-4.625v2.62c0 2.554-10.137 4.625-22.642 4.625-12.505 0-22.642-2.07-22.642-4.625v-2.62z"/><filter id="Z" width="130.9%" height="293.2%" x="-15.5%" y="-69%" filterUnits="objectBoundingBox"><feOffset dy="2" in="SourceAlpha" result="shadowOffsetOuter1"/><feGaussianBlur in="shadowOffsetOuter1" result="shadowBlurOuter1" stdDeviation="2"/><feColorMatrix in="shadowBlurOuter1" values="0 0 0 0 0 0 0 0 0 0 0 0 0 0 0 0 0 0 0.248075181 0"/></filter><path id="ad" d="M5.434 32.604l4.73 10.868 9.76-8.364z"/><filter id="ac" width="196.6%" height="228.8%" x="-48.3%" y="-46%" filterUnits="objectBoundingBox"><feOffset dy="2" in="SourceAlpha" result="shadowOffsetOuter1"/><feGaussianBlur in="shadowOffsetOuter1" result="shadowBlurOuter1" stdDeviation="2"/><feColorMatrix in="shadowBlurOuter1" values="0 0 0 0 0 0 0 0 0 0 0 0 0 0 0 0 0 0 0.248075181 0"/></filter><linearGradient id="ae" x1="9.281%" x2="87.529%" y1="155.315%" y2="50%"><stop offset="0%" stop-color="#496127"/><stop offset="100%" stop-color="#86A957"/></linearGradient><linearGradient id="af" x1="20.102%" x2="103.676%" y1="77.604%" y2="-57.695%"><stop offset="0%" stop-color="#86A957"/><stop offset="100%" stop-color="#BEDA97"/></linearGradient><linearGradient id="ag" x1="80.709%" x2="50%" y1="28.375%" y2="100%"><stop offset="0%" stop-color="#FF8585"/><stop offset="100%" stop-color="#EB3B3B"/></linearGradient><linearGradient id="aj" x1="9.479%" x2="77.935%" y1="-15.259%" y2="87.891%"><stop offset="0%" stop-color="#EB3B3B"/><stop offset="100%" stop-color="#950820"/></linearGradient><path id="ai" d="M0 1.932C0 3.294 5.255 4.4 11.737 4.4c6.483 0 11.738-1.105 11.738-2.467V3.33c0 1.363-5.255 2.467-11.738 2.467C5.255 5.796 0 4.692 0 3.33V1.932z"/><filter id="ah" width="159.6%" height="462.3%" x="-29.8%" y="-129.4%" filterUnits="objectBoundingBox"><feOffset dy="2" in="SourceAlpha" result="shadowOffsetOuter1"/><feGaussianBlur in="shadowOffsetOuter1" result="shadowBlurOuter1" stdDeviation="2"/><feColorMatrix in="shadowBlurOuter1" values="0 0 0 0 0 0 0 0 0 0 0 0 0 0 0 0 0 0 0.248075181 0"/></filter><path id="al" d="M19.997 3.381c0 1.363 5.255 2.467 11.737 2.467 6.483 0 11.738-1.104 11.738-2.467v1.397c0 1.363-5.255 2.467-11.738 2.467-6.482 0-11.737-1.104-11.737-2.467V3.381z"/><filter id="ak" width="159.6%" height="462.3%" x="-29.8%" y="-129.4%" filterUnits="objectBoundingBox"><feOffset dy="2" in="SourceAlpha" result="shadowOffsetOuter1"/><feGaussianBlur in="shadowOffsetOuter1" result="shadowBlurOuter1" stdDeviation="2"/><feColorMatrix in="shadowBlurOuter1" values="0 0 0 0 0 0 0 0 0 0 0 0 0 0 0 0 0 0 0.248075181 0"/></filter><linearGradient id="am" x1="50%" x2="50%" y1="0%" y2="96.468%"><stop offset="0%" stop-color="#54260C"/><stop offset="100%" stop-color="#793011"/></linearGradient><path id="ao" d="M3.623 23.547c0 2.555 10.137 4.626 22.641 4.626 12.505 0 22.642-2.071 22.642-4.626v2.62c0 2.555-10.137 4.626-22.642 4.626-12.504 0-22.641-2.071-22.641-4.626v-2.62z"/><filter id="an" width="130.9%" height="293.2%" x="-15.5%" y="-69%" filterUnits="objectBoundingBox"><feOffset dy="2" in="SourceAlpha" result="shadowOffsetOuter1"/><feGaussianBlur in="shadowOffsetOuter1" result="shadowBlurOuter1" stdDeviation="2"/><feColorMatrix in="shadowBlurOuter1" values="0 0 0 0 0 0 0 0 0 0 0 0 0 0 0 0 0 0 0.248075181 0"/></filter><path id="aq" d="M30.793 26.774l6.132 7.641 6.547-9.056z"/><filter id="ap" width="210.4%" height="254.6%" x="-55.2%" y="-55.2%" filterUnits="objectBoundingBox"><feOffset dy="2" in="SourceAlpha" result="shadowOffsetOuter1"/><feGaussianBlur in="shadowOffsetOuter1" result="shadowBlurOuter1" stdDeviation="2"/><feColorMatrix in="shadowBlurOuter1" values="0 0 0 0 0 0 0 0 0 0 0 0 0 0 0 0 0 0 0.248075181 0"/></filter><linearGradient id="ar" x1="26.511%" x2="55.638%" y1="17.389%" y2="272.272%"><stop offset="0%" stop-color="#F4CCA4"/><stop offset="100%" stop-color="#B7670B"/></linearGradient></defs><g fill="none" fill-rule="evenodd"><g transform="translate(.224 .488)"><mask id="b" fill="#fff"><use xlink:href="#a"/></mask><use fill="#FFF" xlink:href="#a"/><path fill="#FAE89B" d="M0 124.982h71.42v74.757H0z" mask="url(#b)"/><g filter="url(#c)" mask="url(#b)"><path fill="url(#d)" d="M44.855 34.839c0 1.924-8.189 3.484-18.29 3.484-10.102 0-18.29-1.56-18.29-3.484s8.188-3.484 18.29-3.484c10.101 0 18.29 1.56 18.29 3.484z" transform="translate(9.5 142.282)"/><path fill="url(#e)" d="M0 8.749c0-2.667 12.186-4.83 27.218-4.83s27.218 2.163 27.218 4.83L45.93 34.403c0-1.833-8.377-3.32-18.712-3.32-10.335 0-18.713 1.487-18.713 3.32L0 8.75z" transform="translate(9.5 142.282)"/><path fill="url(#f)" d="M8.274 26.977c3.829-1.843 7.613-1.594 10.536.065 2.925 1.658 4.518 4.757 6.358 6.658 1.838 1.9 3.139 2.656 3.139 2.656s-2.424.732-3.402.904c-1.555.274-5.484.417-9.152-.732-1.55-.485-5.977-2.498-7.479-9.55z" transform="translate(9.5 142.282)"/><path fill="url(#g)" d="M24.815 26.566c2.356-.806 4.244-.2 5.31-1.105 2.01-1.707-.33-3.336-.22-5.734.104-2.264 3.04-4.986 1.377-6.826-1.662-1.841-4.831.623-7.16.422-2.466-.21-3.823-2.673-5.832-.966-1.067.907-.697 2.8-1.83 4.959-.904 1.72-2.643 1.12-3.64 2.825-1.016 1.742.762 1.76-.043 3.552-.297.661-.747 1.273-1.198 1.783a9.819 9.819 0 0 0-2.375 5.102c-.074.532-.089.94.017 1.058.105.116.525.157 1.078.154a10.499 10.499 0 0 0 5.531-1.61c.58-.365 1.265-.716 1.978-.914 1.94-.539 1.726 1.172 3.638.426 1.875-.732 1.49-2.484 3.369-3.126z" transform="rotate(-145 47.648 91.417)"/><g transform="rotate(-180 44.38 85.076)"><use fill="#000" filter="url(#h)" xlink:href="#i"/><use fill="url(#j)" xlink:href="#i"/></g><g transform="rotate(157 17.712 82.559)"><use fill="#000" filter="url(#k)" xlink:href="#l"/><use fill="url(#m)" xlink:href="#l"/></g><path fill="url(#n)" d="M8.21 6.974C6.924 9.088 4.24 9.71 2.218 8.364.194 7.02-.402 4.215.887 2.102 2.173-.013 4.857-.635 6.88.71 8.903 2.056 9.5 4.86 8.21 6.974" transform="rotate(50 -138.545 123.917)"/><path fill="url(#o)" d="M7.426 6.452c-1.012 1.661-3.12 2.15-4.71 1.093C1.127 6.487.66 4.284 1.671 2.623 2.683.963 4.791.473 6.381 1.53 7.97 2.588 8.438 4.79 7.426 6.452" transform="rotate(50 -138.545 123.917)"/><path fill="#FFCD02" d="M47.307 156.64c-.116.018-.445-.143-.445-.143s.282-.255.399-.273a.201.201 0 0 1 .234.176.222.222 0 0 1-.188.24m-5.004.338c.116-.018.445.144.445.144s-.282.255-.399.272a.202.202 0 0 1-.234-.176.222.222 0 0 1 .188-.24m4.315 1.465c-.092-.07-.198-.42-.198-.42s.372.01.463.08c.092.068.107.2.033.294a.216.216 0 0 1-.298.046m-3.626-3.267c.091.069.198.42.198.42s-.372-.011-.464-.08a.207.207 0 0 1-.032-.295.216.216 0 0 1 .298-.045m1.875 4.112c-.013-.115.164-.449.164-.449s.245.27.258.384a.222.222 0 0 1-.188.24.201.201 0 0 1-.234-.175m-.124-4.957c.013.115-.164.448-.164.448s-.245-.269-.258-.384a.222.222 0 0 1 .188-.24.202.202 0 0 1 .234.176m-1.663 4.35c.073-.094.43-.215.43-.215s-.026.37-.1.464a.217.217 0 0 1-.298.045.207.207 0 0 1-.033-.294m3.451-3.743c-.073.094-.43.215-.43.215s.026-.37.1-.464a.216.216 0 0 1 .298-.046.208.208 0 0 1 .033.295"/><path fill="url(#n)" d="M8.21 6.974C6.924 9.088 4.24 9.71 2.218 8.364.194 7.02-.402 4.215.887 2.102 2.173-.013 4.857-.635 6.88.71 8.903 2.056 9.5 4.86 8.21 6.974" transform="rotate(50 -161.14 115.694)"/><path fill="url(#o)" d="M7.426 6.452c-1.012 1.661-3.12 2.15-4.71 1.093C1.127 6.487.66 4.284 1.671 2.623 2.683.963 4.791.473 6.381 1.53 7.97 2.588 8.438 4.79 7.426 6.452" transform="rotate(50 -161.14 115.694)"/><path fill="#FFCD02" d="M32.936 171.012c-.116.017-.445-.144-.445-.144s.282-.255.399-.273a.201.201 0 0 1 .234.176.222.222 0 0 1-.188.24m-5.004.338c.116-.018.445.144.445.144s-.282.255-.399.272a.202.202 0 0 1-.234-.176.222.222 0 0 1 .188-.24m4.315 1.465c-.092-.07-.199-.42-.199-.42s.373.011.464.08c.092.069.107.2.033.294a.216.216 0 0 1-.298.046m-3.626-3.267c.091.07.198.42.198.42s-.372-.011-.464-.08a.207.207 0 0 1-.032-.294.216.216 0 0 1 .298-.046m1.875 4.112c-.013-.115.164-.449.164-.449s.245.27.258.385a.222.222 0 0 1-.188.24.201.201 0 0 1-.234-.176m-.124-4.957c.013.115-.164.449-.164.449s-.245-.27-.258-.385a.222.222 0 0 1 .188-.24.202.202 0 0 1 .234.176m-1.664 4.35c.073-.094.431-.215.431-.215s-.026.37-.1.464a.217.217 0 0 1-.298.045.207.207 0 0 1-.033-.294m3.452-3.743c-.074.094-.431.215-.431.215s.026-.37.1-.464a.216.216 0 0 1 .298-.046c.091.07.106.201.033.295"/><g transform="rotate(-15 578.65 64.892)"><use fill="#000" filter="url(#p)" xlink:href="#q"/><use fill="url(#r)" xlink:href="#q"/></g><g transform="translate(9.5 142.282)"><use fill="#D8D8D8" xlink:href="#s"/><use fill="url(#t)" xlink:href="#s"/></g><g transform="translate(9.5 142.282)"><use fill="#D8D8D8" xlink:href="#u"/><use fill="url(#t)" xlink:href="#u"/></g><g transform="translate(9.5 142.282)"><use fill="#D8D8D8" xlink:href="#v"/><use fill="url(#t)" xlink:href="#v"/></g><g transform="translate(9.5 142.282)"><use fill="#000" filter="url(#w)" xlink:href="#x"/><use fill="url(#m)" xlink:href="#x"/></g><g transform="rotate(180 15.42 82.028)"><use fill="#000" filter="url(#y)" xlink:href="#z"/><use fill="url(#A)" xlink:href="#z"/></g><g transform="translate(9.5 142.282)"><use fill="#000" filter="url(#B)" xlink:href="#C"/><use fill="url(#D)" xlink:href="#C"/></g><path fill="url(#D)" d="M22.645 21.121a1.96 1.96 0 1 1-3.92-.001 1.96 1.96 0 0 1 3.92.001z" transform="translate(9.5 142.282)"/><path fill="url(#E)" d="M2.486 1.248C.719 2.591.315 5.125 1.636 6.987l6.399-4.86C6.713.267 4.253-.095 2.485 1.248" transform="translate(23 153.604)"/><path fill="url(#F)" d="M1.815 7.24C.518 5.412.9 2.842 2.665 1.5c1.768-1.34 4.252-.947 5.55.88l.533-.406C7.234-.156 4.336-.616 2.274.95.214 2.514-.231 5.512 1.28 7.644l.534-.405z" transform="translate(23 153.604)"/><path fill="#FFF" d="M25.966 157.97a.42.42 0 0 0-.409.364.427.427 0 0 0 .347.488l.036.002c.245 0 .762-.309.762-.309s-.447-.503-.674-.539a.364.364 0 0 0-.062-.005m2.647-2.011a.417.417 0 0 0-.408.363c-.034.234.296.826.296.826s.487-.463.522-.697a.426.426 0 0 0-.41-.491m-1.714.453a.4.4 0 0 0-.245.083.437.437 0 0 0-.088.598c.134.19.773.366.773.366s.028-.682-.107-.873a.41.41 0 0 0-.333-.174"/><path fill="url(#E)" d="M2.486 1.248C.719 2.591.315 5.125 1.636 6.987l6.399-4.86C6.713.267 4.253-.095 2.485 1.248" transform="rotate(-175 31.782 88.406)"/><path fill="url(#F)" d="M1.815 7.24C.518 5.412.9 2.842 2.665 1.5c1.768-1.34 4.252-.947 5.55.88l.533-.406C7.234-.156 4.336-.616 2.274.95.214 2.514-.231 5.512 1.28 7.644l.534-.405z" transform="rotate(-175 31.782 88.406)"/><path fill="#FFF" d="M53.164 174.638c.2.017.388-.119.439-.326a.427.427 0 0 0-.303-.517.217.217 0 0 0-.036-.006c-.244-.02-.786.242-.786.242s.402.54.624.596c.02.005.042.009.062.01m-2.813 1.773a.418.418 0 0 0 .439-.326c.054-.23-.223-.849-.223-.849s-.526.419-.58.649a.426.426 0 0 0 .364.525m1.749-.302a.4.4 0 0 0 .25-.062.437.437 0 0 0 .14-.587c-.117-.201-.738-.433-.738-.433s-.088.678.03.88c.072.12.19.19.317.202"/><path fill="url(#G)" d="M54.614 0c0 2.733-12.225 4.948-27.307 4.948C12.226 4.948 0 2.733 0 0l8.533 26.286c0 1.879 8.405 3.402 18.774 3.402 10.369 0 18.774-1.523 18.774-3.402L54.614 0z" transform="translate(9.5 150.991)" fill-opacity=".6"/></g><g mask="url(#b)"><path fill="#CD6262" d="M76.54 124.982h71.42v74.757H76.54z"/><path fill="#82D1CC" d="M-1.348 0H148.23v119.692H-1.348z"/><path fill="url(#H)" d="M104 18.5C104 24.85 80.719 30 52 30S0 24.85 0 18.5C0 12.149 23.281 7 52 7s52 5.149 52 11.5" transform="translate(22.327 42.512)"/><g transform="translate(24.327 51.512)"><mask id="K" fill="#fff"><use xlink:href="#I"/></mask><use fill="url(#J)" xlink:href="#I"/><path fill="url(#g)" d="M89.123 15.448c1.443-.499 2.6-.124 3.253-.683 1.23-1.056-.202-2.063-.135-3.546.063-1.401 1.86-3.084.843-4.223-1.018-1.138-2.959.386-4.385.262-1.51-.13-2.341-1.654-3.572-.598-.653.56-.427 1.732-1.12 3.067-.554 1.064-1.62.692-2.23 1.747-.622 1.078.467 1.089-.026 2.197-.182.41-.458.787-.734 1.103a6.099 6.099 0 0 0-1.454 3.155c-.046.33-.055.582.01.654.064.072.322.098.66.096a6.384 6.384 0 0 0 3.387-.995 4.66 4.66 0 0 1 1.212-.566c1.188-.333 1.057.725 2.228.263 1.148-.453.912-1.536 2.063-1.933z" mask="url(#K)" transform="rotate(-180 86.46 12.484)"/><path fill="#000" d="M10.773 3.731l17.383 11.593c.52 3.45.35 7.438-1.883 10.661L8.89 14.392c2.376-3.065 2.748-6.69 1.884-10.66" mask="url(#K)"/><path fill="url(#L)" d="M26.273 25.985L8.89 14.393c-.52-3.45-.351-7.44 1.883-10.662l17.384 11.593c-2.376 3.066-2.748 6.69-1.884 10.661" mask="url(#K)"/><path fill="url(#M)" d="M35.942 12.515l20.729-3.487c2.82 2.128 5.53 5.112 6.209 8.95l-20.73 3.486c-.466-3.82-2.77-6.681-6.209-8.95" mask="url(#K)"/><path fill="url(#L)" d="M62.88 17.978l-20.729 3.486c-2.82-2.128-5.53-5.112-6.209-8.95l20.729-3.486c.466 3.82 2.77 6.681 6.21 8.95" mask="url(#K)"/><path fill="url(#M)" d="M69.211 11.041l21-1.17c2.556 2.427 4.903 5.691 5.135 9.58l-20.998 1.17c-.022-3.848-1.982-6.946-5.137-9.58" mask="url(#K)"/><path fill="url(#N)" d="M95.346 19.451l-20.998 1.17c-2.557-2.427-4.904-5.692-5.137-9.58l21-1.17c.021 3.848 1.98 6.946 5.135 9.58" mask="url(#K)"/><g mask="url(#K)"><path fill="url(#n)" d="M15.727 12.518c-2.467 3.793-7.608 4.91-11.482 2.495C.371 12.597-.769 7.563 1.697 3.77 4.164-.023 9.305-1.14 13.178 1.275c3.875 2.416 5.015 7.45 2.549 11.243" transform="translate(14.652 6.98)"/><path fill="url(#O)" d="M14.224 11.58c-1.939 2.981-5.978 3.859-9.021 1.96-3.044-1.897-3.94-5.852-2.003-8.833 1.94-2.98 5.978-3.857 9.021-1.96 3.044 1.898 3.94 5.853 2.003 8.833" transform="translate(14.652 6.98)"/><path fill="#FFCD02" d="M26.117 11.611c-.117.181-.76.446-.76.446s-.025-.681.092-.862a.4.4 0 0 1 .547-.119.382.382 0 0 1 .121.535m-5.667 7.27c.118-.18.76-.446.76-.446s.027.682-.091.863a.401.401 0 0 1-.547.119.383.383 0 0 1-.121-.536m7.462-4.243c-.214.046-.86-.21-.86-.21s.474-.501.688-.547a.397.397 0 0 1 .473.294.388.388 0 0 1-.301.463m-9.257 1.217c.214-.047.859.21.859.21s-.474.5-.687.547a.396.396 0 0 1-.473-.295.387.387 0 0 1 .301-.462m8.34 2.165c-.184-.114-.455-.743-.455-.743s.696-.026.88.09a.383.383 0 0 1 .122.535.4.4 0 0 1-.547.118m-7.424-5.548c.185.115.455.744.455.744s-.696.025-.88-.09a.383.383 0 0 1-.122-.535.401.401 0 0 1 .547-.12m4.334 7.307c-.048-.209.215-.84.215-.84s.51.463.558.672a.388.388 0 0 1-.301.463.396.396 0 0 1-.472-.295m-1.243-9.064c.047.21-.215.841-.215.841s-.511-.463-.559-.673a.388.388 0 0 1 .301-.462.396.396 0 0 1 .473.294"/></g></g><path fill="url(#M)" d="M14 6.084L32.468 3c2.513 1.882 4.927 4.522 5.532 7.917L19.532 14c-.415-3.38-2.469-5.91-5.532-7.916" transform="translate(22.327 42.512)"/><path fill="url(#L)" d="M38 10.917L19.531 14C17.02 12.118 14.605 9.478 14 6.084L32.468 3c.415 3.38 2.469 5.91 5.532 7.917" transform="translate(22.327 42.512)"/><path fill="url(#M)" d="M55 3l21.062 1.416c2.242 2.838 4.171 6.52 3.915 10.584l-21.062-1.417C59.375 9.588 57.812 6.13 55 3" transform="rotate(13 -107.896 128.236)"/><path fill="url(#L)" d="M80 15l-21.062-1.416c-2.242-2.838-4.17-6.52-3.915-10.584l21.062 1.416C75.625 8.412 77.188 11.871 80 15" transform="rotate(13 -107.896 128.236)"/><path fill="url(#M)" d="M67 21l-17.741-6.953c-1.174-3.02-1.853-6.67-.551-10.047l17.741 6.953C64.989 14.217 65.414 17.578 67 21" transform="rotate(60 31.847 53.091)"/><path fill="url(#P)" d="M49 4l17.742 6.953c1.173 3.02 1.852 6.67.55 10.047l-17.741-6.953C51.011 10.783 50.586 7.422 49 4" transform="rotate(60 32.847 53.091)"/><path fill="url(#Q)" d="M.33 7.126c.191 1.638 6.928 2.117 15.047 1.071S29.922 4.977 29.73 3.34l-.19-1.625c.191 1.638-6.235 3.814-14.354 4.859C7.068 7.619.332 7.139.141 5.5l.175 1.502" transform="translate(72.327 57.512)"/><path fill="url(#R)" d="M29.541 1.715c.191 1.637-6.235 3.812-14.354 4.858C7.068 7.62.332 7.14.14 5.502-.05 3.864 6.375 1.689 14.494.643 22.614-.403 29.35.077 29.541 1.715" transform="translate(72.327 57.512)"/><path fill="url(#S)" d="M26.893 2.056c.112.965-5.192 2.442-11.848 3.299-6.657.857-12.144.77-12.256-.195-.113-.965 5.192-2.441 11.848-3.299 6.656-.857 12.143-.77 12.256.195" transform="translate(72.327 57.512)"/><path fill="url(#g)" d="M23.687 16.61c1.457-.524 2.624-.13 3.284-.717 1.242-1.108-.204-2.165-.136-3.721.064-1.47 1.878-3.236.85-4.43-1.027-1.195-2.986.404-4.426.274-1.525-.137-2.363-1.735-3.606-.627-.66.588-.43 1.817-1.131 3.217-.558 1.117-1.634.727-2.25 1.834-.628 1.13.471 1.142-.027 2.305a4.77 4.77 0 0 1-.74 1.157 6.516 6.516 0 0 0-1.468 3.311c-.047.345-.055.61.01.686.065.076.325.103.666.1a6.267 6.267 0 0 0 3.42-1.044 4.643 4.643 0 0 1 1.223-.594c1.2-.349 1.066.762 2.249.277 1.159-.475.92-1.612 2.082-2.029z" transform="rotate(-106 48.18 26.344)"/><path fill="url(#n)" d="M15.344 12.763c-2.407 3.867-7.422 5.006-11.202 2.544C.362 12.844-.75 7.712 1.656 3.844 4.063-.024 9.078-1.163 12.858 1.3c3.78 2.463 4.893 7.595 2.486 11.463" transform="translate(58.327 44.512)"/><path fill="url(#T)" d="M13.877 11.807c-1.89 3.04-5.831 3.934-8.801 2C2.106 11.87 1.232 7.838 3.123 4.8c1.89-3.04 5.831-3.934 8.801-2 2.97 1.935 3.845 5.967 1.953 9.006" transform="translate(58.327 44.512)"/><path fill="#FFCD02" d="M69.513 49.234c-.115.184-.74.454-.74.454s-.026-.694.088-.878a.38.38 0 0 1 .534-.122.4.4 0 0 1 .118.546m-5.528 7.412c.114-.184.74-.454.74-.454s.026.695-.089.879a.381.381 0 0 1-.533.121.4.4 0 0 1-.118-.546m7.28-4.326c-.209.047-.838-.215-.838-.215s.462-.51.67-.557a.387.387 0 0 1 .461.3.396.396 0 0 1-.293.472m-9.032 1.24c.209-.047.838.215.838.215s-.462.51-.67.557a.386.386 0 0 1-.461-.3.395.395 0 0 1 .293-.471m8.137 2.208c-.18-.117-.443-.758-.443-.758s.679-.026.859.09a.4.4 0 0 1 .118.547.38.38 0 0 1-.533.12m-7.244-5.657c.18.118.444.759.444.759s-.679.026-.859-.092a.4.4 0 0 1-.118-.545.382.382 0 0 1 .533-.122m4.228 7.449c-.046-.212.21-.857.21-.857s.498.473.545.686a.396.396 0 0 1-.294.472.386.386 0 0 1-.46-.3m-1.213-9.241c.046.213-.21.857-.21.857s-.498-.473-.545-.686a.396.396 0 0 1 .294-.472.387.387 0 0 1 .46.3"/><path fill="url(#g)" d="M57.38 23.61c1.56-.524 2.81-.13 3.517-.717 1.331-1.108-.218-2.165-.145-3.721.068-1.47 2.012-3.236.91-4.43-1.1-1.195-3.199.404-4.742.274-1.633-.137-2.532-1.735-3.863-.627-.706.588-.461 1.817-1.212 3.217-.598 1.117-1.75.727-2.41 1.834-.674 1.13.504 1.142-.03 2.305-.196.43-.494.826-.793 1.157a6.316 6.316 0 0 0-1.573 3.311c-.05.345-.059.61.012.686.069.076.347.103.713.1a7.06 7.06 0 0 0 3.664-1.044 5.113 5.113 0 0 1 1.31-.594c1.285-.349 1.143.762 2.41.277 1.242-.475.987-1.612 2.231-2.029z" transform="rotate(-180 65.663 41.756)"/><path fill="url(#M)" d="M23 10l21.062 1.416c2.242 2.838 4.171 6.52 3.915 10.584l-21.062-1.417C27.375 16.588 25.812 13.13 23 10" transform="translate(22.327 42.512)"/><path fill="url(#L)" d="M48 22l-21.062-1.416c-2.242-2.838-4.17-6.52-3.915-10.584l21.062 1.416C43.625 15.412 45.188 18.871 48 22" transform="translate(22.327 42.512)"/><path fill="url(#U)" d="M104 18c0 6.157-23.281 11.147-52 11.147S0 24.157 0 18l3.968 10.093C8.388 39.338 18.765 47.297 30.96 48.73 37.12 49.453 44.311 50 52 50c7.685 0 14.88-.548 21.042-1.272 12.196-1.433 22.57-9.392 26.99-20.636L104 18z" transform="translate(22.327 42.512)"/><path fill="url(#V)" d="M93 8.982L78.22 24c-3.52-.165-7.445-1.121-10.22-3.982L82.78 5C85.374 7.97 88.9 9.057 93 8.982" transform="translate(22.327 42.512)"/><path fill="url(#L)" d="M68 20.018L82.78 5c3.52.165 7.445 1.121 10.22 3.982L78.22 24c-2.594-2.97-6.12-4.058-10.22-3.982" transform="translate(22.327 42.512)"/></g></g><path fill="url(#W)" d="M0 43.712c0 2.868 10.948 5.194 24.453 5.194 13.505 0 24.453-2.326 24.453-5.194v-5.674c0 2.868-10.948 5.194-24.453 5.194C10.948 43.232 0 40.906 0 38.038v5.674z" transform="translate(88.755 138.243)"/><path fill="url(#X)" d="M48.906 38.038c0 3.001-10.948 5.434-24.453 5.434C10.948 43.472 0 41.039 0 38.038c0-3.001 10.948-5.434 24.453-5.434 13.505 0 24.453 2.433 24.453 5.434" transform="translate(88.755 138.243)"/><path fill="url(#Y)" d="M47.095 33.51c0 2.5-10.137 4.528-22.642 4.528-12.505 0-22.642-2.028-22.642-4.528 0-2.501 10.137-4.529 22.642-4.529 12.505 0 22.642 2.028 22.642 4.529" transform="translate(88.755 138.243)"/><g transform="translate(88.755 138.243)"><use fill="#000" filter="url(#Z)" xlink:href="#aa"/><use fill="url(#ab)" xlink:href="#aa"/></g><g transform="translate(88.755 138.243)"><use fill="#000" filter="url(#ac)" xlink:href="#ad"/><use fill="#FFCD02" xlink:href="#ad"/></g><path fill="url(#ae)" d="M47.095 29.887c0 2.5-10.137 4.528-22.642 4.528-12.505 0-22.642-2.027-22.642-4.528 0-2.501 10.137-4.528 22.642-4.528 12.505 0 22.642 2.027 22.642 4.528" transform="translate(88.755 138.243)"/><path fill="url(#af)" d="M1.811 28.981c0 2.555 10.137 4.626 22.642 4.626 12.505 0 22.642-2.071 22.642-4.626v2.62c0 2.555-10.137 4.626-22.642 4.626-12.505 0-22.642-2.071-22.642-4.626v-2.62z" transform="translate(88.755 138.243)"/><path fill="url(#ag)" d="M23.475 2.174c0 1.2-5.255 2.173-11.738 2.173C5.255 4.347 0 3.374 0 2.174 0 .974 5.255 0 11.737 0c6.483 0 11.738.973 11.738 2.174" transform="translate(92.378 165.413)"/><g transform="translate(92.378 165.413)"><use fill="#000" filter="url(#ah)" xlink:href="#ai"/><use fill="url(#aj)" xlink:href="#ai"/></g><path fill="url(#ag)" d="M43.472 3.623c0 1.2-5.255 2.173-11.738 2.173-6.482 0-11.737-.973-11.737-2.173 0-1.2 5.255-2.174 11.737-2.174 6.483 0 11.738.973 11.738 2.174" transform="translate(92.378 165.413)"/><g transform="translate(92.378 165.413)"><use fill="#000" filter="url(#ak)" xlink:href="#al"/><use fill="url(#aj)" xlink:href="#al"/></g><path fill="url(#am)" d="M48.906 24.453c0 2.5-10.137 4.528-22.642 4.528-12.504 0-22.641-2.027-22.641-4.528 0-2.501 10.137-4.528 22.641-4.528 12.505 0 22.642 2.027 22.642 4.528" transform="translate(88.755 138.243)"/><g transform="translate(88.755 138.243)"><use fill="#000" filter="url(#an)" xlink:href="#ao"/><use fill="url(#am)" xlink:href="#ao"/></g><g transform="translate(88.755 138.243)"><use fill="#000" filter="url(#ap)" xlink:href="#aq"/><use fill="#FFCD02" xlink:href="#aq"/></g><path fill="url(#ar)" d="M48.785 23.235c-1.38 2.214-11.756 3.935-24.35 3.935-12.595 0-22.97-1.72-24.35-3.935-.143-.228-.063-.514-.06-.772C.084 15.517 7.294 0 24.434 0s24.35 14.81 24.41 22.463a.884.884 0 0 1-.06.772z" transform="translate(88.755 138.243)"/><path fill="#FFF" d="M123.087 152.536s-1.715-1.37-1.977-1.885c-.262-.515-.113-1.116.332-1.343.446-.227 1.02.006 1.282.52.262.515.363 2.708.363 2.708zm-19.925-5.434s-1.715-1.37-1.977-1.885c-.262-.515-.113-1.116.333-1.343.445-.227 1.02.006 1.281.52.262.515.363 2.708.363 2.708zm10.868 2.206s-1.715 1.371-1.977 1.886c-.262.514-.113 1.115.333 1.342.445.227 1.02-.006 1.281-.52.262-.514.363-2.708.363-2.708zm5.434-3.622s-1.715 1.37-1.977 1.885c-.262.514-.113 1.115.333 1.342.445.227 1.02-.005 1.281-.52.262-.514.363-2.707.363-2.707zm-6.004-2.026s-1.175-1.855-1.255-2.427c-.08-.572.256-1.092.751-1.161.495-.07.962.337 1.042.909.08.571-.538 2.678-.538 2.678zm-9.716 9.027s-.433-2.153-.303-2.715c.13-.563.63-.927 1.118-.815.487.113.777.66.647 1.222-.13.563-1.462 2.308-1.462 2.308zm-7.245 3.623s-.433-2.153-.303-2.715c.13-.563.63-.928 1.118-.815.487.112.777.66.647 1.222-.13.563-1.462 2.308-1.462 2.308zm10.453-7.397s1.715-1.37 1.977-1.885c.262-.514.113-1.115-.333-1.342-.445-.228-1.019.005-1.281.52-.262.514-.363 2.707-.363 2.707zm19.924 3.623s1.715-1.37 1.977-1.885c.263-.515.114-1.116-.332-1.343-.446-.227-1.02.006-1.281.52-.263.515-.364 2.708-.364 2.708zm-1.811-5.434s1.715-1.37 1.977-1.885c.262-.515.113-1.116-.332-1.343-.446-.227-1.02.006-1.282.52-.262.515-.363 2.708-.363 2.708z"/></g></svg>