<svg xmlns="http://www.w3.org/2000/svg" width="13" height="13"><path fill="#464646" fill-rule="evenodd" d="M6.501 9.32a2.82 2.82 0 1 1 0-5.64 2.82 2.82 0 0 1 0 5.64zM13 7.579V5.422l-1.242-.224a5.376 5.376 0 0 0-.62-1.495l.72-1.037-1.524-1.525-1.037.721a5.39 5.39 0 0 0-1.495-.62L7.578 0H5.421l-.223 1.242a5.377 5.377 0 0 0-1.495.62l-1.037-.721-1.525 1.525.72 1.037c-.276.459-.487.96-.619 1.495L0 5.422v2.156l1.242.224c.132.534.343 1.036.62 1.495l-.72 1.037 1.524 1.524 1.037-.72c.459.277.96.487 1.495.62L5.421 13h2.157l.223-1.242a5.373 5.373 0 0 0 1.496-.62l1.037.721 1.525-1.525-.721-1.037c.277-.459.488-.96.62-1.495L13 7.578z"/></svg>