<svg width="30" height="26" xmlns="http://www.w3.org/2000/svg"><defs><linearGradient x1="90.475%" y1="80.413%" x2="0%" y2="50%" id="a"><stop stop-color="#FFE8D9" stop-opacity=".753" offset="0%"/><stop stop-color="#FFDEC9" stop-opacity=".958" offset="70.725%"/><stop stop-color="#FFDCC5" offset="100%"/></linearGradient></defs><g fill="none" fill-rule="evenodd"><path d="M27.448 8.094H13.801c1.841-.83 3.467-2.523 4.094-3.776.694-1.389-.695-4.166-2.084-3.125-1.388 1.042-5.208 3.125-7.986 3.82C5.047 5.707.695 9.093 0 12.217v9.17s1.734 6.047 18.923 4.293h-.029a2.086 2.086 0 0 0 1.28-1.826l.02-.415a2.086 2.086 0 0 0-1.128-1.955 2.09 2.09 0 0 0 1.773-1.963l.02-.416a2.088 2.088 0 0 0-1.129-1.955 2.087 2.087 0 0 0 1.773-1.963l.02-.415c.047-.962-.564-2.115-1.428-2.402h7.353c1.27 0 2.297-1.173 2.297-2.443 0-.954-1.028-1.833-2.297-1.833" transform="translate(0 -.965)" fill="url(#a)"/><path d="M25.016 10.555h2.72c.758 0 1.373-.58 1.373-1.296v-.273c0-.716-.615-1.296-1.374-1.296h-2.677c-.724.782-.724 2.084-.042 2.865M16.354.005c.022.682-1.887 2.273-2.524 2.591-.636-.636-.468-.86-.468-.86S15.74.05 16.354.005" fill="#FFC197"/></g></svg>