<svg width="16" height="30" xmlns="http://www.w3.org/2000/svg" xmlns:xlink="http://www.w3.org/1999/xlink"><defs><path id="a" d="M8 0H0v30h16V0z"/><linearGradient x1="-3.817%" y1="-3.158%" x2="95.548%" y2="97.24%" id="b"><stop stop-opacity=".347" offset="0%"/><stop stop-opacity=".883" offset="100%"/></linearGradient><path id="d" d="M0 30h16V0H0z"/></defs><g fill="none" fill-rule="evenodd"><mask id="c" fill="#fff"><use xlink:href="#a"/></mask><path d="M13.949 30H2.052A2.052 2.052 0 0 1 0 27.949V2.051C0 .918.919 0 2.052 0h11.897a2.05 2.05 0 0 1 2.05 2.051v25.898A2.05 2.05 0 0 1 13.95 30" fill="url(#b)" mask="url(#c)"/><mask id="e" fill="#fff"><use xlink:href="#d"/></mask><path fill="#FFF" mask="url(#e)" d="M.802 26h14.396V4H.802zM9 28.5H7a.5.5 0 0 1 0-1h2a.5.5 0 0 1 0 1m.792-26h-2.5a.25.25 0 0 1 0-.5h2.5a.25.25 0 0 1 0 .5m-3.334-.25a.25.25 0 1 1-.5 0 .25.25 0 0 1 .5 0"/><path fill="#4D4948" mask="url(#e)" d="M5.598 10.908l.891-.18v-.32H3.372v.32l.742.18v5.254l-.742.18v.3h3.117v-.3l-.89-.18z"/><path d="M7.81 13.867a.936.936 0 0 1 .06-.05l-.715-1 1.773-1.89.828-.199v-.32H7.529v.32l.79.19-2.572 2.74v.047l1.304 1.74c-.001-.014.025-.028.025-.04 0-.57.284-1.13.735-1.538m3.577 2.837c-.028-.033-.059-.064-.09-.096l-.05-.046a2.018 2.018 0 0 0-.368-.263l-.055-.031a4.04 4.04 0 0 0-.115-.06l-.122-.06a4.817 4.817 0 0 0-.2-.084l-.587-.23a5.756 5.756 0 0 1-.166-.065 3.703 3.703 0 0 1-.407-.204l-.087-.058a1.216 1.216 0 0 1-.145-.123l-.018-.02a1.034 1.034 0 0 1-.116-.153l-.017-.032a.956.956 0 0 1-.098-.453 1.032 1.032 0 0 1 .02-.19.865.865 0 0 1 .45-.605 1.193 1.193 0 0 1 .558-.132c.064 0 .125.005.182.013a1.02 1.02 0 0 1 .446.173l.052.037c.015.01.03.023.043.034l.26.645.373.903h.257v-.113l-.005-1.653c-.054-.024-.103-.05-.16-.072a3.628 3.628 0 0 0-.366-.133 5.66 5.66 0 0 0-.197-.057l-.1-.025a3.532 3.532 0 0 0-.52-.082 2.458 2.458 0 0 0-.21-.01c-.556 0-1.018.12-1.384.315a2.275 2.275 0 0 0-.403.273l-.005.005a1.934 1.934 0 0 0-.408.487l-.023.04a1.85 1.85 0 0 0-.157.386l-.022.087-.009.044-.014.088-.01.088a1.94 1.94 0 0 0 .056.63l.008.029.005.017.028.084.031.082a1.627 1.627 0 0 0 .421.576c.015.015.032.029.048.043a2.2 2.2 0 0 0 .16.12 1.899 1.899 0 0 0 .194.125 3.495 3.495 0 0 0 .52.25l.541.212c.183.075.334.15.455.233a1.275 1.275 0 0 1 .177.142c.031.03.058.06.083.092l.022.03c.014.02.027.04.04.062l.017.03a.963.963 0 0 1 .03.067c.004.012.01.023.013.034a.83.83 0 0 1 .037.145 1.17 1.17 0 0 1-.08.655.893.893 0 0 1-.268.337.929.929 0 0 1-.079.056l-.042.025a1.134 1.134 0 0 1-.551.137l-.085-.002a1.64 1.64 0 0 1-.304-.042c-.257-.06-.453-.258-.61-.378l-.78-1.678h-.267l.166 1.99c.045.019.092.079.14.098.046.018.095.057.144.076.065.024.133.058.202.08.07.024.14.05.212.07a4.112 4.112 0 0 0 .685.139c.13.014.265.022.405.022a3.126 3.126 0 0 0 1.204-.243l.032-.014a3.06 3.06 0 0 0 .141-.068c.017-.01.035-.018.051-.028a2.367 2.367 0 0 0 .258-.161 1.065 1.065 0 0 1-.049-.32c0-.532.396-.992.906-1.1.01-.083.015-.17.015-.257 0-.37-.098-.69-.339-.965" fill="#4D4948" mask="url(#e)"/><path d="M12.772 18.968a.854.854 0 0 0-.118-.371.831.831 0 0 0-.352-.322.819.819 0 0 0-.342-.083l-.021-.001a.852.852 0 0 0-.844.835.815.815 0 0 0 .113.408.86.86 0 0 0 .73.427.816.816 0 0 0 .502-.17.848.848 0 0 0 .332-.723" fill="#FDCF00" mask="url(#e)"/></g></svg>