<svg width="25" height="21" xmlns="http://www.w3.org/2000/svg"><g stroke="#979797" fill="none" fill-rule="evenodd" stroke-linecap="round" stroke-linejoin="round"><path d="M1.48 20h22.95V4.153H1.48z"/><path d="M18.37 12.461c0 2.96-2.423 5.36-5.415 5.36-2.99 0-5.415-2.4-5.415-5.36 0-2.959 2.424-5.359 5.415-5.359 2.992 0 5.416 2.4 5.416 5.36z"/><path d="M16.204 12.461c0 1.777-1.454 3.216-3.25 3.216-1.793 0-3.248-1.44-3.248-3.216 0-1.775 1.455-3.215 3.249-3.215 1.795 0 3.25 1.44 3.25 3.215zm2.603-5.175h3.67V5.834h-3.67zm-2.203-5.811h-7.34l-.735 2.678h8.81zM4.124 4.154h2.203V2.202H4.124z"/></g></svg>