<svg width="19" height="15" xmlns="http://www.w3.org/2000/svg"><path d="M2.774 14a.411.411 0 0 1-.335-.167c-.184-.268-.034-.67.351-1.59.1-.267.218-.552.301-.786.067-.2.084-.301.1-.368-.05-.034-.1-.067-.133-.1a6.03 6.03 0 0 1-1.506-1.79A4.488 4.488 0 0 1 1 7.056c0-.837.234-1.64.703-2.393.452-.736 1.087-1.372 1.907-1.924C5.25 1.62 7.425 1 9.734 1c2.308 0 4.5.619 6.14 1.74.803.552 1.439 1.188 1.89 1.924.469.753.72 1.556.72 2.393 0 .836-.251 1.656-.72 2.409-.451.72-1.087 1.372-1.89 1.924-1.64 1.12-3.832 1.74-6.14 1.74-1.356 0-2.159-.084-3.414-.519-.083-.033-.317-.117-.451-.167-.117.05-.368.234-.552.385C4.664 13.33 3.777 14 2.774 14m6.96-12.33c-1.105 0-2.176.15-3.18.434a9.347 9.347 0 0 0-2.576 1.188C2.49 4.312 1.67 5.652 1.67 7.057c0 .636.15 1.238.469 1.823.318.569.77 1.105 1.338 1.59.067.05.134.1.218.15.284.235.15.67.067.904-.084.284-.218.636-.352.97-.1.234-.25.569-.318.82.67-.134 1.322-.636 1.824-1.02.418-.318.686-.519.954-.519.067 0 .117 0 .167.016.1.05.402.151.519.185 1.154.418 1.907.485 3.179.485 1.104 0 2.175-.15 3.179-.435.97-.285 1.84-.686 2.576-1.188 1.506-1.02 2.326-2.36 2.326-3.781 0-1.406-.82-2.744-2.326-3.765-.736-.502-1.606-.903-2.576-1.188a11.66 11.66 0 0 0-3.18-.435" stroke="#979797" stroke-width=".5" fill="#979797" fill-rule="evenodd"/></svg>