<svg id="Calque_1" data-name="Calque 1" xmlns="http://www.w3.org/2000/svg" viewBox="0 0 110 110"><defs><style>.cls-2{fill:#464646}</style></defs><path d="M58.56 68.57q.9.43 1.9.83l3.72 1.45-3.73-1.45q-1-.4-1.89-.83zm11.62 8.02a8.2 8.2 0 0 1 .11 1.41 7.56 7.56 0 0 1-.38 2.41 7.56 7.56 0 0 0 .38-2.41 8.2 8.2 0 0 0-.11-1.41zm-.67-1.9q-.13-.22-.27-.42.15.2.27.42zm.67 1.9q0-.26-.11-.51.07.25.11.51zm-.34-1.23q-.09-.23-.21-.45.11.22.21.45zm.23.72q-.06-.25-.15-.49.08.25.15.49zM59.75 87.35a26.17 26.17 0 0 0 2.78.15 21.65 21.65 0 0 0 2.47-.15 21.65 21.65 0 0 1-2.49.14 26.17 26.17 0 0 1-2.76-.14zm-3.45-5.91l-5.36-10.96h-1.83 1.83l5.36 10.96zm12.05 1.48a6.31 6.31 0 0 0 .49-.55 6.31 6.31 0 0 1-.49.55zm-.56.49a6.37 6.37 0 0 0 .56-.49 6.37 6.37 0 0 1-.56.49zM53.37 65q-.35-.37-.66-.76.29.37.66.76z" fill="none"/><path class="cls-2" d="M37.99 25.95l6.12-1.24v-2.2H22.68v2.2l5.1 1.24v36.12l-5.1 1.23v2.07h21.43V63.3l-6.12-1.23V25.95z"/><path class="cls-2" d="M53.2 46.29l.4-.35-4.91-6.87 12.19-13 5.69-1.36v-2.2H51.26v2.21L56.7 26 39 44.85v.33l9 12c0-.09.17-.18.17-.28a14.57 14.57 0 0 1 5.03-10.61zm24.59 19.5q-.29-.34-.63-.66l-.34-.32q-.35-.32-.75-.62A16.48 16.48 0 0 0 74.3 63l-.37-.21-.79-.41-.84-.4q-.65-.3-1.37-.58l-4-1.58-1.14-.46-1-.46-.79-.37q-.54-.28-1-.57l-.59-.4q-.28-.2-.53-.41t-.47-.43l-.12-.13a6 6 0 0 1-.47-.56 5.48 5.48 0 0 1-.32-.49l-.12-.22a6.62 6.62 0 0 1-.67-3.12v-.66a6.48 6.48 0 0 1 .1-.64 6 6 0 0 1 1.57-3 6.18 6.18 0 0 1 1-.81q.27-.18.56-.34t.6-.29a8.28 8.28 0 0 1 3.23-.61 8.8 8.8 0 0 1 1.26.09 7.53 7.53 0 0 1 1.09.24c.22.07.44.14.64.23a7 7 0 0 1 .71.34c.22.12.43.25.63.38l.35.25.3.24L73.46 52 76 58.23h1.77V46.09c-.37-.17-.71-.34-1.11-.5s-.79-.32-1.21-.47-.85-.3-1.29-.44-.89-.27-1.35-.39l-.69-.17c-.7-.16-1.41-.3-2.13-.41q-.72-.1-1.44-.16t-1.45-.06a20.14 20.14 0 0 0-9.51 2.16l-.67.38a15 15 0 0 0-1.54 1l-.56.46a13.84 13.84 0 0 0-1.22 1.19l-.44.52a13.07 13.07 0 0 0-.79 1.08q-.18.28-.35.56l-.16.28q-.24.43-.43.86t-.25.59l-.11.3q-.11.3-.2.6l-.09.3q-.08.3-.15.6l-.06.3q-.06.3-.1.61t-.07.61v.91a13.92 13.92 0 0 0 .23 2.56c.05.29.12.58.2.86l.06.2v.11q.09.29.19.58c.07.19.14.38.22.56a10.47 10.47 0 0 0 .58 1.33l.26.41q.27.4.58.79t.66.76q.35.37.74.72l.33.29q.34.29.71.56l.38.27.65.43.69.42q.79.46 1.69.89t1.9.83l3.72 1.45a17.49 17.49 0 0 1 3.13 1.6 9.29 9.29 0 0 1 .77.58q.24.2.44.4a6.28 6.28 0 0 1 .57.63l.15.21q.15.21.27.42l.12.22q.11.22.21.45l.09.23q.08.24.15.49t.11.51a8.2 8.2 0 0 1 .09 1.44 7.56 7.56 0 0 1-.38 2.41 6.72 6.72 0 0 1-.28.71 6.41 6.41 0 0 1-.79 1.27 6.34 6.34 0 0 1-1 1 6.51 6.51 0 0 1-.54.38L67 84a6.91 6.91 0 0 1-.93.43 7.64 7.64 0 0 1-1.73.43 8.67 8.67 0 0 1-1.14.07h-.58a11.35 11.35 0 0 1-2.09-.29c-1.76-.42-3.11-1.78-4.2-2.6l-5.39-11.56h-1.83l1.14 13.68c.31.13.63.54 1 .67s.66.4 1 .52.91.4 1.39.56 1 .34 1.46.48a29.4 29.4 0 0 0 3.14.72c.51.09 1 .17 1.58.22a26.15 26.15 0 0 0 2.78.15 21.64 21.64 0 0 0 2.4-.13 21.3 21.3 0 0 0 2.44-.42 20.07 20.07 0 0 0 3.35-1.11l.22-.1q.49-.22 1-.47l.35-.19.47-.27.42-.26q.45-.28.88-.59a7.39 7.39 0 0 1-.34-2.2A7.87 7.87 0 0 1 80 74.2a15.12 15.12 0 0 0 .1-1.77 9.62 9.62 0 0 0-2.31-6.64z"/><path d="M87.31 81.36a5.66 5.66 0 0 0-.46-1.87 5.78 5.78 0 0 0-.35-.68 5.84 5.84 0 0 0-1.5-1.64 5.77 5.77 0 0 0-.7-.45l-.25-.13a5.63 5.63 0 0 0-2.33-.59h-.14a5.62 5.62 0 0 0-2 .37 5.86 5.86 0 0 0-3.81 5.37 5.38 5.38 0 0 0 .06.78 5.6 5.6 0 0 0 .72 2 5.91 5.91 0 0 0 5 2.93 5.66 5.66 0 0 0 2.49-.58l.25-.13a5.8 5.8 0 0 0 1.32-1 5.84 5.84 0 0 0 .85-1.09 5.78 5.78 0 0 0 .35-.68 5.66 5.66 0 0 0 .46-1.87v-.4q0-.2.04-.34z" fill="#fccc30"/></svg>