<svg xmlns="http://www.w3.org/2000/svg" xmlns:xlink="http://www.w3.org/1999/xlink" width="107" height="35"><defs><path id="a" d="M15.182 8.412l-4.807-2.755L1.104.34C.589.045.076.224.076.84V22.5c0 .462.366.661.814.405l9.485-5.439 4.806-2.755 4.62-2.649c.543-.311.49-.737.033-.982-.457-.245-4.652-2.668-4.652-2.668z"/><linearGradient id="b" x1="49.999%" x2="49.999%" y1="0%" y2="100%"><stop offset="0%" stop-color="#257CB0"/><stop offset="28.63%" stop-color="#4A93B5"/><stop offset="76.7%" stop-color="#78BCBB"/><stop offset="100%" stop-color="#89CFBD"/></linearGradient><path id="d" d="M15.182 8.412l-4.807-2.755L1.104.34C.589.045.076.224.076.84V22.5c0 .462.366.661.814.405l9.485-5.439 4.806-2.755 4.62-2.649c.543-.311.49-.737.033-.982-.457-.245-4.652-2.668-4.652-2.668z"/><linearGradient id="e" x1="0%" y1="50%" y2="50%"><stop offset="0%" stop-color="#52C1AD"/><stop offset="100%" stop-color="#DEE89A"/></linearGradient><path id="g" d="M15.182 8.412l-4.807-2.755L1.104.34C.589.045.076.224.076.84V22.5c0 .462.366.661.814.405l9.485-5.439 4.806-2.755 4.62-2.649c.543-.311.49-.737.033-.982-.457-.245-4.652-2.668-4.652-2.668z"/><linearGradient id="h" x1="50%" x2="50%" y1=".001%" y2="100%"><stop offset="0%" stop-color="#EC413D"/><stop offset="16.68%" stop-color="#DA4452"/><stop offset="57.48%" stop-color="#B0487A"/><stop offset="86.19%" stop-color="#954A92"/><stop offset="100%" stop-color="#8A4A9D"/></linearGradient><path id="j" d="M15.182 8.412l-4.807-2.755L1.104.34C.589.045.076.224.076.84V22.5c0 .462.366.661.814.405l9.485-5.439 4.806-2.755 4.62-2.649c.543-.311.49-.737.033-.982-.457-.245-4.652-2.668-4.652-2.668z"/><linearGradient id="k" x1="50%" x2="50%" y1=".002%" y2="100%"><stop offset="0%" stop-color="#F58879"/><stop offset="11.94%" stop-color="#F69079"/><stop offset="71.28%" stop-color="#FCB877"/><stop offset="100%" stop-color="#FEC874"/></linearGradient></defs><g fill="none" fill-rule="evenodd"><path fill="#000" d="M106.599 29.947c0 2.584-2.11 4.68-4.711 4.68H4.712C2.11 34.627 0 32.532 0 29.947V4.68C0 2.096 2.11 0 4.712 0h97.176c2.601 0 4.71 2.096 4.71 4.68v25.267z"/><path fill="#000" d="M106.599 29.947c0 2.584-2.11 4.68-4.711 4.68H4.712C2.11 34.627 0 32.532 0 29.947V4.68C0 2.096 2.11 0 4.712 0h97.176c2.601 0 4.71 2.096 4.71 4.68v25.267z"/><g transform="translate(7.92 6.83)"><mask id="c" fill="#fff"><use xlink:href="#a"/></mask><path fill="url(#b)" d="M.076-.163v23.449l11.908-11.724z" mask="url(#c)"/></g><g transform="translate(7.92 6.83)"><mask id="f" fill="#fff"><use xlink:href="#d"/></mask><path fill="url(#e)" d="M15.182 8.412l-4.807-2.755L.076-.25v.086l11.908 11.725z" mask="url(#f)"/></g><g transform="translate(7.92 6.83)"><mask id="i" fill="#fff"><use xlink:href="#g"/></mask><path fill="url(#h)" d="M.076 23.286v.086l10.299-5.906 4.806-2.755-3.197-3.15z" mask="url(#i)"/></g><g transform="translate(7.92 6.83)"><mask id="l" fill="#fff"><use xlink:href="#j"/></mask><path fill="url(#k)" d="M15.182 8.412l-3.198 3.15 3.197 3.149 5.494-3.15z" mask="url(#l)"/></g><path fill="#F9F9F9" d="M82.96 22.975a2.99 2.99 0 0 1-1.224-.245 2.306 2.306 0 0 1-.931-.756h-.075c.05.398.075.775.075 1.132v2.806h-1.04v-9.88h.846l.144.933h.05c.267-.374.579-.643.934-.81a2.853 2.853 0 0 1 1.221-.248c.91 0 1.614.309 2.109.927.495.618.742 1.485.742 2.6 0 1.12-.252 1.99-.754 2.611-.504.62-1.202.93-2.097.93zm-.15-6.19c-.702 0-1.21.192-1.523.578-.313.386-.474 1-.482 1.842v.23c0 .958.16 1.644.482 2.056.322.413.838.62 1.548.62.593 0 1.058-.239 1.395-.716.336-.477.504-1.134.504-1.973 0-.85-.168-1.503-.504-1.957-.337-.454-.81-.68-1.42-.68zm5.41 6.065h-1.04v-9.68h1.04zm5.98 0l-.207-.97h-.05c-.343.428-.684.717-1.025.868-.34.152-.765.227-1.275.227-.68 0-1.214-.174-1.6-.522-.387-.349-.58-.844-.58-1.487 0-1.377 1.109-2.1 3.327-2.166l1.166-.037v-.423c0-.536-.117-.93-.348-1.186-.232-.255-.603-.383-1.113-.383-.572 0-1.22.175-1.942.523l-.32-.79a4.908 4.908 0 0 1 1.113-.43 4.848 4.848 0 0 1 1.212-.155c.819 0 1.426.18 1.82.541.395.361.592.94.592 1.736v4.654h-.77zm-2.35-.727c.647 0 1.156-.176 1.526-.529.369-.352.554-.846.554-1.481v-.616l-1.04.043c-.827.03-1.423.157-1.79.384-.365.226-.547.577-.547 1.054 0 .373.113.658.341.852.228.195.546.293.956.293zm3.724-6.092h1.115l1.504 3.89c.33.887.535 1.528.614 1.922h.05c.055-.212.169-.573.342-1.086.173-.513.74-2.087 1.7-4.726h1.117l-2.952 7.766c-.292.767-.634 1.312-1.025 1.634-.39.32-.87.481-1.437.481-.318 0-.63-.035-.94-.105v-.828c.23.05.487.075.77.075.715 0 1.224-.398 1.53-1.195l.382-.97-2.77-6.858zm-31.881.634c.33.271 1.02.841 1.02 1.926 0 1.055-.604 1.555-1.207 2.025-.187.185-.403.386-.403.7 0 .313.216.484.374.613l.518.398c.631.528 1.205 1.014 1.205 1.998 0 1.34-1.307 2.695-3.777 2.695-2.083 0-3.088-.983-3.088-2.04 0-.513.258-1.24 1.106-1.74.89-.542 2.097-.612 2.744-.656-.202-.257-.431-.528-.431-.97 0-.241.072-.384.143-.556a5.234 5.234 0 0 1-.46.029c-1.522 0-2.384-1.127-2.384-2.24 0-.656.302-1.383.919-1.91.82-.67 1.796-.785 2.572-.785h2.958l-.92.513h-.89zm-1.02 6.333c-.115-.015-.187-.015-.33-.015-.13 0-.906.03-1.509.23-.316.113-1.235.455-1.235 1.469 0 1.012.991 1.74 2.528 1.74 1.378 0 2.112-.657 2.112-1.54 0-.73-.474-1.113-1.566-1.884zm.416-2.71c.33-.329.359-.785.359-1.042 0-1.026-.618-2.624-1.81-2.624-.373 0-.775.185-1.005.47-.244.3-.316.685-.316 1.056 0 .956.56 2.54 1.796 2.54.359 0 .746-.172.976-.4zM54.65 22.77c-2.28 0-3.499-1.766-3.499-3.361 0-1.866 1.534-3.46 3.715-3.46 2.107 0 3.426 1.637 3.426 3.36 0 1.68-1.304 3.461-3.642 3.461zm1.792-1.153c.345-.456.431-1.026.431-1.582 0-1.253-.602-3.645-2.38-3.645-.474 0-.947.185-1.29.485-.56.497-.661 1.124-.661 1.737 0 1.41.703 3.73 2.438 3.73.56 0 1.133-.27 1.462-.725zm-9.565 1.153c-2.28 0-3.5-1.766-3.5-3.361 0-1.866 1.536-3.46 3.716-3.46 2.107 0 3.426 1.637 3.426 3.36 0 1.68-1.304 3.461-3.642 3.461zm1.793-1.153c.344-.456.43-1.026.43-1.582 0-1.253-.602-3.645-2.38-3.645-.474 0-.947.185-1.291.485-.56.497-.66 1.124-.66 1.737 0 1.41.703 3.73 2.439 3.73.559 0 1.132-.27 1.462-.725zm-6.388.93l-2.062.472c-.836.13-1.586.243-2.378.243-3.98 0-5.493-2.907-5.493-5.183 0-2.777 2.147-5.354 5.825-5.354.778 0 1.527.114 2.205.3 1.081.301 1.586.673 1.903.888l-1.197 1.131-.504.114.36-.572c-.49-.473-1.385-1.346-3.085-1.346-2.278 0-3.995 1.72-3.995 4.224 0 2.691 1.962 5.226 5.104 5.226.924 0 1.399-.186 1.831-.358v-2.305l-2.176.114 1.153-.616h3.056l-.374.358c-.102.086-.116.115-.145.229a10.13 10.13 0 0 0-.028.687v1.748z"/><path fill="#F9F9F9" d="M68.25 22.134c-.476-.043-.576-.128-.576-.687v-8.103l.008-.093c.058-.5.202-.587.65-.845h-2.063l-1.082.516h1.103v.006l-.001-.005v8.839c0 .286-.057.33-.39.759h2.553l.534-.314c-.245-.03-.49-.044-.736-.073zm5.867.132c-.157.086-.315.186-.472.256-.473.213-.96.27-1.39.27-.457 0-1.174-.029-1.905-.554-1.015-.712-1.46-1.935-1.46-3 0-2.204 1.805-3.285 3.28-3.285.515 0 1.045.128 1.475.399.715.468.901 1.08 1 1.406l-3.363 1.352-1.103.085c.358 1.806 1.589 2.857 2.95 2.857.73 0 1.26-.255 1.746-.497l-.758.711zm-1.346-4.238c.272-.099.415-.184.415-.383 0-.569-.644-1.223-1.418-1.223-.573 0-1.646.44-1.646 1.976 0 .242.028.498.043.755l2.606-1.125zm2.728-1.978v.939h-.115v-.939h-.313v-.097h.74v.097zm1.288.939v-.947h-.006l-.29.947h-.09l-.294-.947h-.004v.947H76v-1.036h.179l.265.837h.004l.262-.837h.18v1.036h-.102z"/><path fill="#F9F9FA" d="M35.212 9.937h-.716c0-.098-.068-.375-.204-.831h-1.035c-.14.449-.21.726-.21.831h-.674c0-.057.174-.532.523-1.423.348-.89.523-1.381.523-1.471h.846c0 .084.158.568.473 1.45.316.883.474 1.364.474 1.444zm-1.034-1.256c-.255-.765-.383-1.178-.383-1.24h-.036c0 .057-.132.47-.396 1.24h.815zM38.1 9.937h-.554c0-.06-.205-.381-.615-.962-.43-.612-.675-1.03-.735-1.256h-.036c.038.324.057.618.057.88 0 .366.01.812.03 1.339h-.55a31.4 31.4 0 0 0 0-2.895h.665c0 .079.184.392.553.94.392.583.618.978.676 1.185h.033a8.331 8.331 0 0 1-.053-.889c0-.401-.01-.814-.032-1.236h.56a25.03 25.03 0 0 0-.031 1.38c0 .558.01 1.062.031 1.514zm3.244-1.547c0 .42-.136.788-.408 1.103-.271.314-.652.47-1.141.47-.221 0-.526-.008-.914-.026a35.321 35.321 0 0 0 0-2.894h.392c.064 0 .16-.003.286-.007.127-.004.21-.007.249-.007.539 0 .93.134 1.172.4.243.267.364.587.364.96zm-.611.095c0-.284-.084-.524-.25-.719-.168-.195-.423-.292-.767-.292a2.35 2.35 0 0 0-.264.02c.015.297.022.606.022.93 0 .354.008.705.023 1.053.097.02.194.029.29.029.322 0 .56-.1.714-.297a1.14 1.14 0 0 0 .232-.724zm3.603 1.452h-.663c-.173-.524-.306-.848-.398-.971-.093-.123-.242-.185-.448-.185-.087 0-.17.001-.248.003 0 .38.006.765.02 1.153h-.622a35.321 35.321 0 0 0 0-2.894h.387c.045 0 .138-.003.28-.007.143-.004.275-.006.396-.006.685 0 1.028.232 1.028.698 0 .369-.196.626-.587.771v.033c.15.042.283.159.396.35.114.192.266.544.46 1.055zm-.84-2.045c0-.295-.19-.443-.573-.443-.14 0-.264.01-.371.031.016.23.024.53.024.899.083.003.152.004.209.004.474 0 .712-.163.712-.491zm4.049.545c0 .455-.14.832-.42 1.131-.282.3-.629.45-1.042.45a1.32 1.32 0 0 1-.99-.413c-.265-.275-.398-.624-.398-1.048 0-.455.14-.832.421-1.132.28-.3.628-.449 1.041-.449.394 0 .724.137.99.411.265.275.398.624.398 1.05zm-.618.064c0-.31-.08-.561-.239-.754a.74.74 0 0 0-.591-.289c-.218 0-.403.097-.555.292-.152.194-.229.439-.229.735 0 .309.08.56.24.753a.74.74 0 0 0 .59.29c.219 0 .404-.097.556-.292.152-.195.228-.44.228-.735zm1.884 1.436h-.633a36.117 36.117 0 0 0 0-2.894h.633a35.516 35.516 0 0 0 0 2.895zm3.245-1.547c0 .42-.136.788-.407 1.103-.272.314-.653.47-1.142.47-.221 0-.526-.008-.914-.026a35.321 35.321 0 0 0 0-2.894h.392c.064 0 .16-.003.287-.007.126-.004.21-.007.248-.007.539 0 .93.134 1.172.4.243.267.364.587.364.96zm-.611.095c0-.284-.084-.524-.25-.719-.168-.195-.423-.292-.766-.292a2.35 2.35 0 0 0-.265.02c.015.297.023.606.023.93 0 .354.007.705.022 1.053.097.02.194.029.29.029.322 0 .56-.1.714-.297a1.14 1.14 0 0 0 .232-.724zm4.916 1.452h-.716c0-.098-.068-.375-.205-.831h-1.034c-.14.449-.21.726-.21.831h-.674c0-.057.174-.532.523-1.423.348-.89.522-1.381.522-1.471h.847c0 .084.158.568.473 1.45.316.883.474 1.364.474 1.444zm-1.034-1.256c-.256-.765-.383-1.178-.383-1.24h-.036c0 .057-.132.47-.396 1.24h.815zm3.645-.881c0 .355-.132.617-.397.785-.265.17-.59.254-.975.254-.07 0-.12-.001-.15-.004 0 .278.008.646.025 1.102h-.63c.02-.428.03-.933.03-1.514 0-.533-.01-.993-.03-1.38h.39c.055 0 .161-.003.318-.007.156-.004.292-.006.407-.006.284 0 .523.063.719.19.195.128.293.321.293.58zm-.577.123c0-.317-.212-.476-.636-.476a1.82 1.82 0 0 0-.336.033c.017.28.025.598.025.952a1.6 1.6 0 0 0 .13.004c.545 0 .817-.17.817-.513zm3.263-.123c0 .355-.133.617-.398.785-.264.17-.59.254-.975.254-.07 0-.12-.001-.15-.004 0 .278.008.646.025 1.102h-.63c.02-.428.03-.933.03-1.514 0-.533-.01-.993-.03-1.38h.39c.055 0 .161-.003.318-.007s.292-.006.407-.006c.284 0 .524.063.719.19.195.128.294.321.294.58zm-.578.123c0-.317-.212-.476-.636-.476a1.82 1.82 0 0 0-.335.033c.016.28.024.598.024.952a1.6 1.6 0 0 0 .13.004c.545 0 .817-.17.817-.513zm4.968.514c0 .455-.14.832-.421 1.131-.28.3-.628.45-1.041.45a1.32 1.32 0 0 1-.99-.413c-.265-.275-.398-.624-.398-1.048 0-.455.14-.832.42-1.132.282-.3.629-.449 1.042-.449.394 0 .724.137.99.411.265.275.398.624.398 1.05zm-.618.064c0-.31-.08-.561-.24-.754a.74.74 0 0 0-.59-.289c-.219 0-.404.097-.556.292-.152.194-.228.439-.228.735 0 .309.08.56.24.753.161.194.357.29.59.29.218 0 .403-.097.556-.292.152-.195.228-.44.228-.735zm3.652 1.436h-.553c0-.06-.205-.381-.615-.962-.43-.612-.675-1.03-.734-1.256h-.036c.037.324.056.618.056.88 0 .366.01.812.031 1.339h-.55a31.4 31.4 0 0 0 0-2.895h.664c0 .079.184.392.553.94.393.583.618.978.676 1.185h.034a8.331 8.331 0 0 1-.054-.889c0-.401-.01-.814-.031-1.236h.56c-.022.368-.032.828-.032 1.38 0 .558.01 1.062.031 1.514z"/></g></svg>