<svg width="30" height="30" xmlns="http://www.w3.org/2000/svg"><g fill="none" fill-rule="evenodd"><path d="M14.5 28C21.956 28 28 21.956 28 14.5S21.956 1 14.5 1 1 7.044 1 14.5 7.044 28 14.5 28z" stroke="#464646" fill="#464646"/><path d="M15 0C6.716 0 0 6.716 0 15c0 8.284 6.716 15 15 15 8.285 0 15-6.716 15-15 0-8.284-6.715-15-15-15zm-3.114 20.809c-.046.03-.189.113-.221.132a.555.555 0 0 1-.512.007c-.126-.076-.11-.273-.11-.273l-.002-5.331.003-5.325s-.017-.193.109-.268a.551.551 0 0 1 .512.007c.032.019.175.1.22.13l8.733 5.173c.13.078.186.182.17.283.016.124-.04.211-.17.288l-8.732 5.177z" fill="#FFF"/></g></svg>