<svg width="80" height="80" xmlns="http://www.w3.org/2000/svg" xmlns:xlink="http://www.w3.org/1999/xlink"><defs><path d="M40 80c22.091 0 40-17.909 40-40S62.091 0 40 0 0 17.909 0 40s17.909 40 40 40z" id="a"/><mask id="b" x="0" y="0" width="80" height="80" fill="#fff"><use xlink:href="#a"/></mask></defs><g fill="none" fill-rule="evenodd"><use stroke="#FFF" mask="url(#b)" stroke-width="4" fill-opacity=".15" fill="#000" xlink:href="#a"/><path d="M31.695 55.49c-.122.082-.502.301-.589.352-.384.228-.994.237-1.365.02-.337-.204-.29-.73-.29-.73l-.01-14.215.01-14.2s-.047-.513.29-.715c.371-.219.98-.211 1.365.018.087.05.467.266.59.348L54.98 40.164c.347.207.498.484.453.753.045.332-.106.563-.453.769L31.695 55.49z" fill="#FFF"/></g></svg>